<svg xmlns="http://www.w3.org/2000/svg" width="174" height="40" fill="none" viewBox="0 0 174 40"><g fill="#fff" clip-path="url(#clip0_139_214)"><path d="M84.556 27.308c4.046 0 7.326-3.244 7.326-7.246s-3.28-7.246-7.326-7.246c-4.047 0-7.327 3.244-7.327 7.246s3.28 7.246 7.327 7.246m3.845 5.025a1.913 1.913 0 0 0 1.923-1.902c0-1.05-.86-1.902-1.923-1.902a1.91 1.91 0 0 0-1.922 1.902c0 1.05.86 1.902 1.922 1.902m4.994 2.131a1.31 1.31 0 0 0 1.317-1.303c0-.72-.59-1.303-1.317-1.303a1.31 1.31 0 0 0-1.318 1.303c0 .72.59 1.303 1.318 1.303m5.654-.913a.633.633 0 0 0 .636-.63.633.633 0 0 0-.636-.629.633.633 0 0 0-.637.63c0 .348.285.63.637.63m-4.301-7.038a1.91 1.91 0 0 0 1.923-1.902c0-1.05-.86-1.902-1.923-1.902a1.913 1.913 0 0 0-1.923 1.902c0 1.05.861 1.902 1.923 1.902m5.479-2.17a1.31 1.31 0 0 0 1.318-1.303c0-.72-.59-1.303-1.318-1.303a1.31 1.31 0 0 0-1.317 1.303c0 .72.59 1.303 1.317 1.303m3.819-4.803a.633.633 0 0 0 .636-.63.633.633 0 0 0-.636-.629.633.633 0 0 0-.637.63c0 .347.285.63.637.63m-9.086-1.487a1.91 1.91 0 0 0 1.922-1.902c0-1.05-.86-1.902-1.923-1.902a1.91 1.91 0 0 0-1.923 1.902c0 1.05.861 1.902 1.923 1.902m2.861-5.48a1.31 1.31 0 0 0 1.318-1.303c0-.72-.59-1.303-1.317-1.303a1.31 1.31 0 0 0-1.318 1.303c0 .72.59 1.303 1.318 1.303m-.187-6.33a.633.633 0 0 0 .636-.63.633.633 0 0 0-.636-.629.633.633 0 0 0-.637.63c0 .347.285.63.636.63m-8.417 5.51a1.91 1.91 0 0 0 1.923-1.902c0-1.05-.86-1.902-1.923-1.902a1.91 1.91 0 0 0-1.922 1.902c0 1.05.86 1.902 1.922 1.902M87.657 5.73a1.31 1.31 0 0 0 1.317-1.304c0-.72-.59-1.303-1.317-1.303a1.31 1.31 0 0 0-1.317 1.303c0 .72.59 1.303 1.317 1.303m-4.244-4.47a.633.633 0 0 0 .637-.63.633.633 0 0 0-.637-.629.633.633 0 0 0-.636.63c0 .347.285.629.636.629M80.591 11.49a1.91 1.91 0 0 0 1.923-1.903c0-1.05-.86-1.902-1.923-1.902a1.91 1.91 0 0 0-1.922 1.902c0 1.05.86 1.902 1.922 1.902M75.6 8.16a1.31 1.31 0 0 0 1.317-1.302c0-.72-.59-1.303-1.317-1.303a1.31 1.31 0 0 0-1.318 1.303c0 .72.59 1.302 1.318 1.302m-5.716-.373a.633.633 0 0 0 .636-.63.633.633 0 0 0-.636-.629.633.633 0 0 0-.636.63c0 .347.284.63.636.63m4.416 9.549a1.91 1.91 0 0 0 1.922-1.902c0-1.05-.86-1.902-1.923-1.902a1.91 1.91 0 0 0-1.923 1.902c0 1.05.861 1.902 1.923 1.902m-5.494.918a1.31 1.31 0 0 0 1.317-1.303c0-.72-.59-1.303-1.317-1.303a1.31 1.31 0 0 0-1.318 1.303c0 .72.59 1.303 1.318 1.303m-3.861 3.504a.633.633 0 0 0 .636-.63.633.633 0 0 0-.636-.63.633.633 0 0 0-.637.63c0 .348.285.63.637.63m8.978 4.029a1.91 1.91 0 0 0 1.923-1.902c0-1.05-.861-1.902-1.923-1.902a1.91 1.91 0 0 0-1.923 1.902c0 1.05.86 1.902 1.923 1.902m-2.76 4.34a1.31 1.31 0 0 0 1.317-1.303c0-.72-.59-1.303-1.317-1.303a1.31 1.31 0 0 0-1.318 1.303c0 .72.59 1.303 1.318 1.303m.305 4.977a.633.633 0 0 0 .637-.629.633.633 0 0 0-.637-.63.633.633 0 0 0-.636.63c0 .348.285.63.636.63m8.339-3.066a1.913 1.913 0 0 0 1.923-1.902c0-1.05-.861-1.902-1.923-1.902a1.91 1.91 0 0 0-1.923 1.902c0 1.05.86 1.902 1.923 1.902m1.551 4.83a1.31 1.31 0 0 0 1.317-1.303c0-.72-.59-1.303-1.318-1.303a1.31 1.31 0 0 0-1.317 1.303c0 .72.59 1.303 1.317 1.303M85.595 40a.633.633 0 0 0 .636-.63.633.633 0 0 0-.636-.629.633.633 0 0 0-.636.63c0 .347.285.629.636.629M2.686 25.86H0l4.897-12.262c.517-1.288 1.467-1.778 2.934-1.778 1.466 0 2.396.49 2.892 1.778l4.71 12.261h-2.707L8.491 14.764c-.123-.328-.352-.47-.68-.47-.33 0-.558.142-.704.47L2.685 25.859zm17.231 0H17.48V14.824c0-1.799 1.032-3.005 3.202-3.005 1.942 0 2.81.98 3.388 2.555l4.07 8.807c.165.327.434.572.89.572.515 0 .826-.307.826-.777V12.064h2.458v11.014c0 1.82-1.053 3.025-3.203 3.025-1.941 0-2.83-.98-3.408-2.555l-4.07-8.806c-.186-.41-.435-.593-.869-.593-.557 0-.847.308-.847.798zm21.818-13.794c4.07 0 6.282 2.248 6.282 6.907s-2.19 6.886-6.282 6.886h-4.918c-.786 0-1.156-.368-1.156-1.123V13.191c0-.757.372-1.123 1.156-1.123h4.918zm-3.637 11.136c0 .183.083.246.27.246h3.367c2.707 0 3.842-1.328 3.842-4.496 0-3.167-1.135-4.475-3.842-4.475h-3.367c-.186 0-.27.06-.27.246zm20.309-11.136c3.14 0 4.484 1.92 4.484 4.128 0 1.717-.827 3.556-2.954 4.148l3.243 5.517h-2.706l-3.182-5.334h-3.637c-.226 0-.352.102-.352.348v4.986h-2.437v-5.456c0-1.552.66-2.187 2.19-2.187h5.435c1.384 0 1.941-.94 1.941-1.92 0-.981-.598-1.82-1.941-1.82h-7.644v-2.41h7.561zm49.996 13.794h-2.604l4.317-11.485c.537-1.573 1.426-2.555 3.285-2.555 2.066 0 3.1 1.206 3.1 3.005v8.153c0 .47.29.777.703.777.373 0 .661-.224.786-.571l3.388-8.807c.537-1.573 1.425-2.555 3.285-2.555 2.065 0 3.099 1.206 3.099 3.004v11.035h-2.458V14.948c0-.49-.29-.797-.703-.797-.352 0-.64.246-.765.592l-3.388 8.807c-.537 1.573-1.446 2.555-3.305 2.555-2.045 0-3.08-1.206-3.08-3.025v-8.133c0-.49-.31-.798-.723-.798-.373 0-.62.246-.765.593l-4.174 11.115zm33.863-13.794v2.41h-6.983c-1.467 0-2.109.674-2.109 1.738 0 1.123.724 1.636 2.129 1.636h6.86v2.186h-6.922c-1.404 0-2.128.552-2.128 1.677s.681 1.737 2.108 1.737h7.066v2.41h-7.066c-3.306 0-4.649-1.614-4.649-3.759 0-1.572.724-2.636 2.004-3.167-1.302-.531-1.963-1.593-1.963-3.107 0-2.207 1.385-3.76 4.67-3.76zm9.256 0c4.07 0 6.282 2.248 6.282 6.907s-2.191 6.886-6.282 6.886h-4.918c-.786 0-1.156-.368-1.156-1.123V13.191c0-.757.372-1.123 1.156-1.123h4.918zm-3.637 11.136c0 .183.083.246.27.246h3.367c2.707 0 3.842-1.328 3.842-4.496 0-3.167-1.135-4.475-3.842-4.475h-3.367c-.186 0-.27.06-.27.246zm13.368 2.658h-2.686l4.897-12.262c.517-1.288 1.467-1.778 2.934-1.778 1.466 0 2.396.49 2.892 1.778L174 25.859h-2.707l-4.235-11.095c-.124-.328-.352-.47-.681-.47s-.558.142-.703.47l-4.423 11.095z"/></g><defs><clipPath id="clip0_139_214"><path fill="#fff" d="M0 0h174v40H0z"/></clipPath></defs></svg>